<?xml version="1.0" encoding="utf-8"?>
<!-- Generator: Adobe Illustrator 23.0.3, SVG Export Plug-In . SVG Version: 6.00 Build 0)  -->
<svg version="1.1" id="Layer_1" xmlns="http://www.w3.org/2000/svg" xmlns:xlink="http://www.w3.org/1999/xlink" x="0px" y="0px"
	 viewBox="0 0 250 150" style="enable-background:new 0 0 250 150;" xml:space="preserve">
<style type="text/css">
	.st0{fill:#FFFFFF;}
	.st1{fill:#6157AF;}
	.st2{fill:#0069E0;}
	.st3{fill:none;stroke:#000000;stroke-width:11;stroke-miterlimit:10;}
	.st4{fill:none;stroke:#FFFFFF;stroke-miterlimit:10;}
</style>
<g>
	<g>
		<path class="st1" d="M249.6,131.9l-0.1-44.7L190.8,4.8l-1.1-1.5h-1.8L7.4,17.4L0.4,18V23l7.1,10l50.4,70.9l0.2,33l0,6.1l0,1.4
			l2,2.2l0,0l41.9-3.3V98.7l-35-49l28.6-2.2l36,50.6v43l44-3.4V93l-34.8-49l28.7-2.2l36.1,50.6v43L249.6,131.9z M173,34.4l-38.7,3
			h-6.8l41.1,57.9v35.9l-29.8,2.3V95.9l-38.5-54.1l-1.1-1.5h-1.8L54,43.7L95,101v35.9l-29.8,2.3l-0.2-37.6L10,24.3l176.2-13.8
			l56.1,79l0.1,35.9l-29.8,2.3V90.1L173,34.4z"/>
	</g>
	<g>
		<polygon class="st1" points="97.5,47.4 97.4,40.3 97.5,40.3 		"/>
	</g>
	<g>
		<polygon class="st1" points="134.4,44.5 134.4,37.4 134.4,37.4 		"/>
	</g>
	<g>
		
			<rect x="111.7" y="104.9" transform="matrix(0.5335 -0.8458 0.8458 0.5335 -53.2654 156.5306)" class="st1" width="7.1" height="43.4"/>
	</g>
	<g>
		
			<rect x="185.6" y="99.1" transform="matrix(0.5336 -0.8458 0.8458 0.5336 -13.9175 216.3048)" class="st1" width="7.1" height="43.4"/>
	</g>
	<g>
		<polygon class="st1" points="64,140.7 60.2,146.7 60.2,146.7 27.1,125.8 27.1,107 0.4,69.9 0.4,18 7.4,17.4 7.4,67.6 34.2,104.8 
			34.2,121.9 58,137 		"/>
	</g>
</g>
</svg>
