<?xml version="1.0" encoding="utf-8"?>
<!-- Generator: Adobe Illustrator 23.0.3, SVG Export Plug-In . SVG Version: 6.00 Build 0)  -->
<svg version="1.1" id="Layer_1" xmlns="http://www.w3.org/2000/svg" xmlns:xlink="http://www.w3.org/1999/xlink" x="0px" y="0px"
	 viewBox="0 0 16 16" style="enable-background:new 0 0 16 16;" xml:space="preserve">
<style type="text/css">
	.st0{fill:#FFFFFF;}
	.st1{fill:#6157AF;}
	.st2{fill:#0069E0;}
	.st3{fill:none;stroke:#000000;stroke-width:11;stroke-miterlimit:10;}
	.st4{fill:none;stroke:#FFFFFF;stroke-miterlimit:10;}
</style>
<rect class="st0" width="16" height="16"/>
<g>
	<g>
		<path class="st1" d="M15.2,11.3l0-2.6L11.8,4l-0.1-0.1h-0.1L1.2,4.7l-0.4,0V5l0.4,0.6l2.9,4.1l0,1.9l0,0.4l0,0.1l0.1,0.1l0,0
			l2.4-0.2V9.4l-2-2.8l1.6-0.1l2.1,2.9v2.5l2.5-0.2V9l-2-2.8l1.6-0.1L12.6,9v2.5L15.2,11.3z M10.8,5.7L8.5,5.8H8.1l2.4,3.3v2.1
			l-1.7,0.1V9.2L6.6,6.1L6.5,6H6.4L3.9,6.2l2.4,3.3v2.1l-1.7,0.1l0-2.2L1.4,5.1l10.1-0.8l3.2,4.5l0,2.1L13,11V8.9L10.8,5.7z"/>
	</g>
	<g>
		<polygon class="st1" points="6.4,6.4 6.4,6 6.4,6 		"/>
	</g>
	<g>
		<polygon class="st1" points="8.5,6.2 8.5,5.8 8.5,5.8 		"/>
	</g>
	<g>
		<rect x="7.2" y="9.7" transform="matrix(0.5335 -0.8458 0.8458 0.5335 -5.7999 11.4089)" class="st1" width="0.4" height="2.5"/>
	</g>
	<g>
		<rect x="11.5" y="9.4" transform="matrix(0.5336 -0.8458 0.8458 0.5336 -3.5388 14.8437)" class="st1" width="0.4" height="2.5"/>
	</g>
	<g>
		<polygon class="st1" points="4.5,11.8 4.3,12.1 4.3,12.1 2.4,10.9 2.4,9.8 0.8,7.7 0.8,4.7 1.2,4.7 1.2,7.6 2.8,9.7 2.8,10.7 
			4.2,11.6 		"/>
	</g>
</g>
</svg>
