<?xml version="1.0" encoding="utf-8"?>
<!-- Generator: Adobe Illustrator 23.0.3, SVG Export Plug-In . SVG Version: 6.00 Build 0)  -->
<svg version="1.1" id="Layer_1" xmlns="http://www.w3.org/2000/svg" xmlns:xlink="http://www.w3.org/1999/xlink" x="0px" y="0px"
	 viewBox="0 0 250 150" style="enable-background:new 0 0 250 150;" xml:space="preserve">
<style type="text/css">
	.st0{fill:#FFFFFF;}
	.st1{fill:#6157AF;}
	.st2{fill:#0069E0;}
	.st3{fill:none;stroke:#000000;stroke-width:11;stroke-miterlimit:10;}
	.st4{fill:none;stroke:#FFFFFF;stroke-miterlimit:10;}
</style>
<g>
	<g>
		<g>
			<g>
				<path class="st2" d="M177,70l-0.1-18.6L152.5,17l-0.5-0.6h-0.8L76,22.2l-3,0.2v2.1l3,4.2l21,29.6l0.1,13.8l0,2.5l0,0.6l0.9,0.9
					l0,0l17.5-1.4V56.2l-14.6-20.4l11.9-0.9l15,21.1v17.9l18.3-1.4V53.8l-14.5-20.4l12-0.9l15.1,21.1v17.9L177,70z M145,29.3
					l-16.2,1.3H126l17.2,24.1v15l-12.4,1V55l-16-22.6l-0.5-0.6h-0.8l-18.1,1.4l17.1,23.9v15l-12.4,1l-0.1-15.7L77,25.1l73.5-5.8
					l23.4,33l0.1,15l-12.4,1V52.6L145,29.3z"/>
			</g>
			<g>
				<polygon class="st2" points="113.5,34.7 113.5,31.8 113.5,31.8 				"/>
			</g>
			<g>
				<polygon class="st2" points="128.9,33.5 128.9,30.6 128.9,30.6 				"/>
			</g>
			<g>
				
					<rect x="119.5" y="58.7" transform="matrix(0.5335 -0.8458 0.8458 0.5335 -0.8996 133.9152)" class="st2" width="3" height="18.1"/>
			</g>
			<g>
				
					<rect x="150.3" y="56.3" transform="matrix(0.5336 -0.8458 0.8458 0.5336 15.5169 158.8542)" class="st2" width="3" height="18.1"/>
			</g>
			<g>
				<polygon class="st2" points="99.6,73.7 98,76.2 98,76.2 84.2,67.4 84.2,59.6 73,44.1 73,22.5 76,22.2 76,43.2 87.1,58.7 
					87.1,65.8 97.1,72.1 				"/>
			</g>
		</g>
	</g>
	<g>
		<path class="st2" d="M20.8,98.2v3.1H7.3v9.4h11v3h-11v9.6h13.6v3.1H3.4V98.2H20.8z"/>
		<path class="st2" d="M25,98.2h3.1c0.3,0,0.6,0.1,0.8,0.3s0.4,0.4,0.5,0.7l8,19.9c0.2,0.4,0.4,0.9,0.5,1.5c0.2,0.5,0.3,1.1,0.4,1.6
			c0.1-0.6,0.2-1.1,0.4-1.6s0.3-1,0.5-1.5l7.9-19.9c0.1-0.2,0.2-0.4,0.5-0.6s0.5-0.3,0.8-0.3h3.1L40,126.5h-3.4L25,98.2z"/>
		<path class="st2" d="M74.5,98.2v3.1H60.9v9.4h11v3h-11v9.6h13.6v3.1H57.1V98.2H74.5z"/>
		<path class="st2" d="M84.7,98.4c0.2,0.1,0.4,0.3,0.6,0.5l16.4,21.3c0-0.3-0.1-0.7-0.1-1c0-0.3,0-0.6,0-0.9v-20h3.3v28.2h-1.9
			c-0.3,0-0.6-0.1-0.8-0.2c-0.2-0.1-0.4-0.3-0.6-0.5l-16.3-21.3c0,0.3,0,0.7,0.1,1c0,0.3,0,0.6,0,0.9v20.1h-3.4V98.2h2
			C84.3,98.2,84.5,98.3,84.7,98.4z"/>
		<path class="st2" d="M132.9,98.2v3.2h-9.1v25H120v-25h-9.2v-3.2H132.9z"/>
		<path class="st2" d="M153.3,117.3c0.1,0.3,0.3,0.7,0.4,1.1c0.1-0.4,0.3-0.7,0.4-1.1s0.3-0.7,0.5-1l9.6-17.4
			c0.2-0.3,0.3-0.5,0.5-0.6c0.2-0.1,0.4-0.1,0.8-0.1h2.8v28.2H165v-20.8c0-0.3,0-0.6,0-0.9c0-0.3,0-0.6,0.1-1l-9.7,17.7
			c-0.3,0.6-0.8,0.9-1.4,0.9h-0.6c-0.6,0-1.1-0.3-1.4-0.9l-9.9-17.7c0,0.3,0.1,0.7,0.1,1c0,0.3,0,0.6,0,0.9v20.8h-3.4V98.2h2.8
			c0.3,0,0.6,0,0.8,0.1c0.2,0.1,0.4,0.3,0.5,0.6l9.8,17.4C153,116.6,153.2,116.9,153.3,117.3z"/>
		<path class="st2" d="M200.4,126.5h-3c-0.3,0-0.6-0.1-0.8-0.3c-0.2-0.2-0.4-0.4-0.5-0.7l-2.6-6.8h-12.7l-2.6,6.8
			c-0.1,0.2-0.3,0.4-0.5,0.6c-0.2,0.2-0.5,0.3-0.8,0.3h-3l11.3-28.2h3.9L200.4,126.5z M181.9,116h10.5l-4.4-11.5
			c-0.3-0.7-0.6-1.6-0.8-2.7c-0.1,0.5-0.3,1-0.4,1.5c-0.1,0.5-0.3,0.9-0.4,1.2L181.9,116z"/>
		<path class="st2" d="M222.6,98.2v3.2h-9.1v25h-3.8v-25h-9.2v-3.2H222.6z"/>
		<path class="st2" d="M246,98.2v3.1h-13.6v9.4h11v3h-11v9.6H246v3.1h-17.4V98.2H246z"/>
	</g>
</g>
</svg>
